# xmcd
#
# Track frame offsets:
# 150
# 18150
# 40430
# 55992
# 78730
# 105567
# 120105
# 137192
#
# Disc length: 2100 seconds
#
# Revision: 4
# Processed by: cddbd v1.5.2PL0 Copyright (c) Steve Scherf et al.
# Submitted via: CddbHelper 0.1
#
DISCID=62083208
DTITLE=Johnny Guitar Watson - Strike On Computers
DYEAR=1984
DGENRE=Funk
TTITLE0=You Do Me Bad So Good
TTITLE1=Boogie Down Party Down
TTITLE2=Scratching "85"
TTITLE3=Let's Get Together
TTITLE4=Strike On Computers
TTITLE5=Byrd Ball Train
TTITLE6=Statue of Liberty
TTITLE7=Please Send Me Someone to Love
EXTD=
EXTT0=
EXTT1=
EXTT2=
EXTT3=
EXTT4=
EXTT5=
EXTT6=
EXTT7=
PLAYORDER=
